<?xml version="1.0" encoding="UTF-8" standalone="no"?>
<!DOCTYPE svg PUBLIC "-//W3C//DTD SVG 1.1//EN" "http://www.w3.org/Graphics/SVG/1.1/DTD/svg11.dtd">
<svg width="100%" height="100%" viewBox="0 0 500 500" version="1.1" xmlns="http://www.w3.org/2000/svg" xmlns:xlink="http://www.w3.org/1999/xlink" xml:space="preserve" xmlns:serif="http://www.serif.com/" style="fill-rule:evenodd;clip-rule:evenodd;stroke-linecap:round;stroke-linejoin:round;stroke-miterlimit:1.5;">
    <g transform="matrix(0.8,0,0,0.8,50,50)">
        <path d="M362.5,0L425,0C466.394,0 500,33.606 500,75L500,425C500,466.394 466.394,500 425,500L75,500C33.606,500 0,466.394 0,425L0,75C0,33.606 33.606,0 75,0L137.5,0L137.5,33.333C137.5,40.232 143.101,45.833 150,45.833C156.899,45.833 162.5,40.232 162.5,33.333L162.5,0L237.5,0L237.5,33.333C237.5,40.232 243.101,45.833 250,45.833C256.899,45.833 262.5,40.232 262.5,33.333L262.5,0L337.5,0L337.5,33.333C337.5,40.232 343.101,45.833 350,45.833C356.899,45.833 362.5,40.232 362.5,33.333L362.5,0Z" style="fill:rgb(39,39,42);"/>
    </g>
    <g transform="matrix(1.237333,0,0,1.237333,-39.333333,-10.951149)">
        <path d="M161.099,39.332L161.099,93.211C161.099,97.672 157.478,101.293 153.017,101.293C148.557,101.293 144.935,97.672 144.935,93.211L144.935,39.332C144.935,34.871 148.557,31.25 153.017,31.25C157.478,31.25 161.099,34.871 161.099,39.332Z" style="fill:rgb(39,39,42);"/>
    </g>
    <g transform="matrix(1.237333,0,0,1.237333,40.666667,-10.951149)">
        <path d="M161.099,39.332L161.099,93.211C161.099,97.672 157.478,101.293 153.017,101.293C148.557,101.293 144.935,97.672 144.935,93.211L144.935,39.332C144.935,34.871 148.557,31.25 153.017,31.25C157.478,31.25 161.099,34.871 161.099,39.332Z" style="fill:rgb(39,39,42);"/>
    </g>
    <g transform="matrix(0,-0.928,4.283077,0,-33.846154,303.882184)">
        <path d="M161.099,33.001L161.099,99.542C161.099,100.508 157.478,101.293 153.017,101.293C148.557,101.293 144.935,100.508 144.935,99.542L144.935,33.001C144.935,32.035 148.557,31.25 153.017,31.25C157.478,31.25 161.099,32.035 161.099,33.001Z" style="fill:rgb(63,63,70);fill-opacity:0.3;stroke:rgb(63,63,70);stroke-width:0.32px;"/>
    </g>
    <g transform="matrix(0,-0.928,4.283077,0,-33.846154,368.882184)">
        <path d="M161.099,33.001L161.099,99.542C161.099,100.508 157.478,101.293 153.017,101.293C148.557,101.293 144.935,100.508 144.935,99.542L144.935,33.001C144.935,32.035 148.557,31.25 153.017,31.25C157.478,31.25 161.099,32.035 161.099,33.001Z" style="fill:rgb(63,63,70);fill-opacity:0.3;stroke:rgb(63,63,70);stroke-width:0.32px;"/>
    </g>
    <g transform="matrix(0,-0.928,4.283077,0,-33.846154,433.882184)">
        <path d="M161.099,33.001L161.099,99.542C161.099,100.508 157.478,101.293 153.017,101.293C148.557,101.293 144.935,100.508 144.935,99.542L144.935,33.001C144.935,32.035 148.557,31.25 153.017,31.25C157.478,31.25 161.099,32.035 161.099,33.001Z" style="fill:rgb(63,63,70);fill-opacity:0.3;stroke:rgb(63,63,70);stroke-width:0.32px;"/>
    </g>
    <g transform="matrix(0,-0.928,4.283077,0,-33.846154,498.882184)">
        <path d="M161.099,33.001L161.099,99.542C161.099,100.508 157.478,101.293 153.017,101.293C148.557,101.293 144.935,100.508 144.935,99.542L144.935,33.001C144.935,32.035 148.557,31.25 153.017,31.25C157.478,31.25 161.099,32.035 161.099,33.001Z" style="fill:rgb(63,63,70);fill-opacity:0.3;stroke:rgb(63,63,70);stroke-width:0.32px;"/>
    </g>
    <g transform="matrix(1.237333,0,0,1.237333,120.666667,-10.951149)">
        <path d="M161.099,39.332L161.099,93.211C161.099,97.672 157.478,101.293 153.017,101.293C148.557,101.293 144.935,97.672 144.935,93.211L144.935,39.332C144.935,34.871 148.557,31.25 153.017,31.25C157.478,31.25 161.099,34.871 161.099,39.332Z" style="fill:rgb(39,39,42);"/>
    </g>
</svg>
